HIERARCHY
ROOT Hips
{
   OFFSET 0.00000 0.00000 0.00000
   CHANNELS 6 Xposition Yposition Zposition Zrotation Xrotation Yrotation
   JOINT RightUpLeg
   {
      OFFSET -10.734961 -10.400485 0.121982
      CHANNELS 3 Zrotation Xrotation Yrotation
      JOINT RightLeg
      {
         OFFSET 0.000000 -53.307237 1.647240
         CHANNELS 3 Zrotation Xrotation Yrotation
         JOINT RightFoot
         {
            OFFSET 0.304259 -50.510883 -1.752708
            CHANNELS 3 Zrotation Xrotation Yrotation
            JOINT RightToes
            {
               OFFSET 0.048000 -5.298108 10.198920
               CHANNELS 3 Zrotation Xrotation Yrotation
               End Site
               {
                  OFFSET -0.096000 -0.164938 11.735748
               }
            }
         }
      }
   }
   JOINT Spine
   {
      OFFSET 0.000000 14.268601 0.000000
      CHANNELS 3 Zrotation Xrotation Yrotation
      JOINT Spine1
      {
         OFFSET 0.000000 30.788881 0.153196
         CHANNELS 3 Zrotation Xrotation Yrotation
         JOINT HEad
         {
            OFFSET 0.000000 10.480993 0.013609
            CHANNELS 3 Zrotation Xrotation Yrotation
            End Site
            {
               OFFSET -0.348000 15.329041 3.016740
            }
         }
         JOINT LeftShoulder1
         {
            OFFSET 10.788001 -0.434702 -0.264000
            CHANNELS 3 Zrotation Xrotation Yrotation
            JOINT LeftArm
            {
               OFFSET 12.339240 -0.004056 0.386548
               CHANNELS 3 Zrotation Xrotation Yrotation
               JOINT LeftForeArm
               {
                  OFFSET 39.320280 0.118973 -1.709208
                  CHANNELS 3 Zrotation Xrotation Yrotation
                  JOINT LeftHand
                  {
                     OFFSET 33.077163 0.102434 1.226592
                     CHANNELS 3 Zrotation Xrotation Yrotation
                     End Site
                     {
                        OFFSET 20.093162 -0.720000 1.803492
                     }
                  }
               }
            }
         }
         JOINT RightShoulder
         {
            OFFSET -10.788001 -0.434702 -0.264000
            CHANNELS 3 Zrotation Xrotation Yrotation
            JOINT RightArm
            {
               OFFSET -12.339240 -0.004056 0.386548
               CHANNELS 3 Zrotation Xrotation Yrotation
               JOINT RightForeArm
               {
                  OFFSET -39.476518 0.118973 -1.709208
                  CHANNELS 3 Zrotation Xrotation Yrotation
                  JOINT RightHand
                  {
                     OFFSET -32.990522 0.102434 1.226592
                     CHANNELS 3 Zrotation Xrotation Yrotation
                     End Site
                     {
                        OFFSET -19.957442 -0.720000 1.803492
                     }
                  }
               }
            }
         }
      }
   }
   JOINT LeftUpLeg
   {
      OFFSET 10.734961 -10.400485 0.121982
      CHANNELS 3 Zrotation Xrotation Yrotation
      JOINT LeftLeg
      {
         OFFSET 0.000000 -53.307237 1.647240
         CHANNELS 3 Zrotation Xrotation Yrotation
         JOINT LeftFoot
         {
            OFFSET -0.304259 -50.510883 -1.752708
            CHANNELS 3 Zrotation Xrotation Yrotation
            JOINT LeftToes
            {
               OFFSET -0.048000 -5.298108 10.198920
               CHANNELS 3 Zrotation Xrotation Yrotation
               End Site
               {
                  OFFSET 0.096000 -0.056938 11.735748
               }
            }
         }
      }
   }
}
MOTION
Frames: 9
Frame Time: 0.016667
-183.430574 108.872422 -522.117683 67.386332 -64.764858 67.621017 -29.938317 58.080787 48.748969 14.409416 19.919789 -6.218152 -61.365411 24.595866 21.863447 14.304395 -16.886657 -38.771118 -18.185548 69.474382 125.735996 48.560145 -15.082200 -109.676978 38.193899 -18.957096 -4.217133 190.114627 131.607937 -151.644324 238.008460 29.937822 187.973172 66.709891 45.956945 -102.285129 -118.452091 -32.733989 -108.149427 -42.976691 34.595007 70.282291 67.503600 78.306978 249.741414 28.648569 154.589283 38.548201 -17.294573 0.548775 26.382547 -8.003517 36.046651 56.290898 28.933470 31.269989 1.389518 -41.634928 30.069580 14.757968 19.316122 -19.439046 -46.368894
-182.002999 109.422491 -525.454017 61.199718 -65.671763 61.033054 -27.870631 55.375363 47.529364 13.147645 19.814860 -6.819559 -61.703137 22.987183 19.904339 14.415066 -17.545892 -38.405471 -17.720979 68.815194 122.470073 50.985122 -11.755231 -105.994994 29.889731 -12.787910 0.405666 195.844992 127.117033 -151.752269 233.509414 32.710568 185.880415 68.979248 40.982812 -103.554117 -121.088162 -31.201991 -112.288836 -41.595794 35.133998 70.505762 65.958754 76.518384 252.597908 28.713197 155.942371 39.831460 -20.887815 5.716175 13.292005 -8.704793 35.528387 47.581376 33.583374 28.518671 -8.083579 -46.715151 30.379493 14.190837 20.710469 -20.541092 -49.147729
-180.493467 110.555580 -528.908264 54.113342 -65.230970 53.445732 -25.995188 50.236755 46.158924 12.318155 23.240064 -7.021557 -47.490712 18.263437 13.847829 14.125607 -19.500976 -38.829294 -18.153762 67.901349 118.431355 51.667284 -8.960567 -103.324725 25.211318 -11.002710 5.293758 200.747688 117.982611 -153.123088 227.602954 37.510590 184.231580 70.742619 37.533300 -101.907406 -117.757529 -26.590406 -116.243618 -41.544984 35.975453 72.843319 62.968593 73.515744 253.613503 28.760683 157.749694 40.769426 -20.262899 -1.029418 27.567883 -7.790358 33.644631 41.677794 33.315323 29.809637 -11.054926 -52.137382 31.159637 14.969485 20.995035 -21.260873 -49.321107
-179.049146 111.432312 -532.103492 44.268898 -62.590044 42.138596 -24.866183 42.322355 46.042712 11.717264 27.351752 -5.534954 -34.047100 14.599470 9.080958 13.439262 -20.850785 -37.882804 -18.518299 67.211636 113.748406 50.614854 -8.067206 -100.848249 22.982043 -12.204556 8.765710 207.055682 105.656790 -153.924009 219.636071 45.453239 181.798653 72.806627 33.118658 -98.847502 -118.369214 -26.396898 -119.603374 -38.435175 39.532957 67.823273 58.599683 75.348857 253.770952 32.542839 157.169346 41.306307 -23.722029 1.597247 19.774183 -7.442860 28.188264 40.084936 31.794647 32.833563 -15.368199 -45.186257 28.351849 13.481467 19.563909 -23.559812 -48.088818
-177.572839 112.095803 -535.243637 29.563897 -56.254575 25.693911 -21.541715 30.886648 46.849142 12.386779 27.646958 -3.211246 -40.865677 16.137328 6.978941 13.673612 -19.261241 -36.421844 -19.081240 63.411606 111.445471 49.175094 -5.997168 -98.781269 22.680326 -14.564436 11.251984 214.507213 90.075094 -152.899631 209.914362 55.928546 179.846654 74.409051 29.080108 -94.960489 -114.752205 -25.719053 -124.123689 -37.330546 44.120812 72.765898 56.719448 67.297519 252.062558 30.655965 157.315854 40.338834 -24.422803 -4.309317 28.752269 -7.558128 20.106812 36.186889 27.651391 34.067983 -14.421861 -37.529048 25.061988 11.266994 18.113383 -24.677262 -46.711978
-176.100175 112.802885 -538.105690 15.264259 -46.810620 8.666313 -18.451520 14.640270 47.982410 13.525328 23.811892 -3.538810 -37.794801 17.679571 6.081152 13.932153 -18.274917 -35.351611 -17.169086 59.587185 113.628980 52.979076 -0.644031 -95.024795 25.780097 -11.722469 11.617852 220.652225 75.555457 -149.968920 200.386385 69.408212 177.431184 76.332234 24.299655 -91.697455 -113.612369 -27.366060 -129.449515 -35.981044 51.180585 76.239418 53.948557 54.628546 251.458714 32.492405 154.104832 39.872657 -27.470193 -3.793426 23.255042 -5.551167 9.954150 31.461654 20.435173 33.573423 -7.856781 -27.216825 23.691232 9.840779 17.328840 -22.784744 -45.080710
-174.470765 113.510979 -540.634338 4.802878 -39.463013 -6.576097 -12.740584 2.979534 47.044465 14.918779 23.085414 -6.323578 -43.477672 16.851152 4.259776 14.373293 -18.174189 -35.632212 -13.361949 52.792250 116.006965 52.521146 2.473815 -90.681109 34.495385 -16.429487 11.360738 225.535715 54.663636 -148.663152 192.713623 83.683539 175.706084 73.775878 21.388869 -84.410736 -110.297371 -29.062759 -134.083143 -35.292940 58.115450 79.524070 54.800203 44.553133 249.680707 33.774302 151.777267 37.852871 -27.958310 -5.599730 27.046735 -2.473767 2.959220 27.444252 15.482879 34.149747 -2.070110 -17.069908 20.054752 8.525518 15.661363 -21.614940 -42.555944
-172.696798 113.813599 -542.698585 -1.387397 -31.405213 -15.068137 -8.241926 -6.761059 44.487180 16.697787 21.658035 -9.158396 -41.806208 18.095874 3.851064 15.240558 -16.441975 -35.543164 -8.941203 48.979761 118.859553 48.268458 4.612454 -86.187937 41.432344 -21.579356 11.370545 237.261183 34.907557 -142.714904 190.037596 102.873024 171.556416 73.852124 21.851853 -77.221866 -110.239622 -31.182020 -136.187333 -32.621352 65.708291 82.776743 59.360115 34.307525 250.090710 36.099882 148.242112 35.425917 -30.477964 -4.440477 24.350340 0.877696 -2.545312 25.051329 11.826608 32.322101 0.562151 -7.242577 16.263824 7.299160 13.768688 -20.365746 -39.609432
-170.808217 113.921421 -544.424545 -4.918432 -24.894284 -18.714751 -4.680280 -14.385038 39.046245 18.626802 22.416625 -11.075952 -45.039241 18.924311 2.254927 16.280103 -15.684752 -37.162988 -3.357825 44.727822 124.194928 41.665418 6.727556 -80.482414 46.575565 -27.105551 11.734377 250.584942 18.658528 -131.426036 186.229930 120.159720 164.250217 73.265820 22.896995 -70.654632 -110.903981 -31.870687 -135.692240 -26.816933 73.615314 85.820255 67.013889 24.757078 257.596814 39.376222 142.391877 32.684497 -31.921562 -5.247946 27.912251 3.120453 -5.659552 22.556483 10.151190 28.388119 0.337945 2.678518 12.599913 5.619120 11.902923 -19.911658 -37.301528
